The Way (2010) Pal HQ AC3 DD5.1 (Externe Subs) TBS



Verenigde Staten
Drama
128 minuten

geregisseerd door Emilio Estevez
met Martin Sheen, Emilio Estevez en Deborah Kara Unger

Tom Avery, een oogarts uit Californië, krijgt op een dag een oproep vanuit Frankrijk dat zijn zoon Daniel bij een storm in de Pyreneeën is overleden. Hoewel 
de relatie tussen vader en zoon niet echt goed was, besluit Tom toch naar Frankrijk te reizen waar hij ontdekt dat zijn zoon Daniel was begonnen met de pelgrimsroute naar Santiago de Compostela. Nu zijn zoon dood is besluit Tom zelf de pelgrimsroute te lopen uit respect voor zijn overleden zoon.

Storyline

Tom Avery, an ophthalmologist from California, to one day get a call from France that his son Daniel in a storm in the Pyrenees is deceased. Although the relationship between father and son was not very good, but Tom decides to travel to France where he discovers that his son Daniel had started the pilgrimage route to Santiago de Compostela. Now his son is dead Tom himself decided the pilgrimage route to walk out of respect for his deceased son.

An American father travels to France to recover the body of his estranged son who died while traveling "El camino de Santiago" from France to Santiago de Compostela (Spain). 



INFO

SOURCE..........: The Way 2010 DVDRip XVID AC3-5.1 HQ Hive-CM8
SIZE............: 1.93GB
FORM............: AVI
VIDEO CODEC.....: XVID
BITRATE.........: 2251 Kbit/s
WIDTH & HEIGHT..: 720 X 400
FRAMES/S........: 25.000 Fps
AUDIO...........: English
AUDIO CODE......: AC3
BITRATE.........: 448kbps
CHANNELS........: 5
SAMPLING........: 48.0 kHz
Subtitles.......: Dutch srt (lossles)
Cover...........: Yes meegepost.
Vertaling subs..: SRT
Category........: Video
Format..........: DivX
Source..........: Retail
Subtitle........: Dutch subs extern
Genre...........: Drama
Language........: English audio

General
Complete name                    : The.Way.2010.DVDRip.XVID.AC3.HQ.Hive-CM8.avi
Format                           : AVI
Format/Info                      : Audio Video Interleave
File size                        : 1.93 GiB
Duration                         : 2h 2mn
Overall bit rate                 : 2 251 Kbps
Writing application              : Nandub v1.0rc2
Writing library                  : Nandub build 1853/release

Video
ID                               : 0
Format                           : MPEG-4 Visual
Format profile                   : Advanced Simple@L5
Format settings, BVOP            : Yes
Format settings, QPel            : Yes
Format settings, GMC             : No warppoints
Format settings, Matrix          : Default (H.263)
Muxing mode                      : Packed bitstream
Codec ID                         : XVID
Codec ID/Hint                    : XviD
Duration                         : 2h 2mn
Bit rate                         : 1 794 Kbps
Width                            : 720 pixels
Height                           : 400 pixels
Display aspect ratio             : 16:9
Frame rate                       : 25.000 fps
Color space                      : YUV
Chroma subsampling               : 4:2:0
Bit depth                        : 8 bits
Scan type                        : Progressive
Bits/(Pixel*Frame)               : 0.249
Stream size                      : 1.54 GiB (80%)
Writing library                  : XviD 1.2.1 (UTC 2008-12-04)

Audio
ID                               : 1
Format                           : AC-3
Format/Info                      : Audio Coding 3
Mode extension                   : CM (complete main)
Codec ID                         : 2000
Duration                         : 2h 2mn
Bit rate mode                    : Constant
Bit rate                         : 448 Kbps
Channel(s)                       : 6 channels
Channel positions                : Front: L C R, Side: L R, LFE
Sampling rate                    : 48.0 KHz
Bit depth                        : 16 bits
Stream size                      : 394 MiB (20%)
Alignment                        : Split accross interleaves
Interleave, duration             : 40 ms (1.00 video frame)
Interleave, preload duration     : 500 ms   
  
http://www.moviemeter.nl/film/39531 
http://www.imdb.com/title/tt1441912